<svg width="30" height="30" viewBox="0 0 30 30" fill="none" xmlns="http://www.w3.org/2000/svg">
<path d="M25 0H5C2.23858 0 0 2.23858 0 5V25C0 27.7614 2.23858 30 5 30H25C27.7614 30 30 27.7614 30 25V5C30 2.23858 27.7614 0 25 0Z" fill="#CA444B"/>
<path d="M24.5 1H5.5C3.01472 1 1 3.01472 1 5.5V22C1 24.4853 3.01472 26.5 5.5 26.5H24.5C26.9853 26.5 29 24.4853 29 22V5.5C29 3.01472 26.9853 1 24.5 1Z" fill="#F38290"/>
<path d="M23.7499 2H6.24994C4.0408 2 2.24994 3.79086 2.24994 6V21.5C2.24994 23.7091 4.0408 25.5 6.24994 25.5H23.7499C25.9591 25.5 27.7499 23.7091 27.7499 21.5V6C27.7499 3.79086 25.9591 2 23.7499 2Z" fill="#FEF7DD"/>
<path d="M6.24994 2H23.7499C24.8108 2 25.8282 2.42142 26.5784 3.17157C27.3285 3.92172 27.7499 4.93913 27.7499 6V8H2.24994V6C2.24994 4.93913 2.67136 3.92172 3.42151 3.17157C4.17165 2.42142 5.18907 2 6.24994 2Z" fill="#FEE784"/>
<path d="M8.59521 0H8.01022C7.47174 0 7.03522 0.436521 7.03522 0.974998V4.525C7.03522 5.06348 7.47174 5.5 8.01022 5.5H8.59521C9.13369 5.5 9.57021 5.06348 9.57021 4.525V0.974998C9.57021 0.436521 9.13369 0 8.59521 0Z" fill="#FEC248"/>
<path d="M8.59521 0H8.01022C7.47174 0 7.03522 0.436521 7.03522 0.974998V3.99C7.03522 4.52848 7.47174 4.965 8.01022 4.965H8.59521C9.13369 4.965 9.57021 4.52848 9.57021 3.99V0.974998C9.57021 0.436521 9.13369 0 8.59521 0Z" fill="#D8D8D8"/>
<path d="M13.0601 0H12.4751C11.9366 0 11.5001 0.436521 11.5001 0.974998V4.525C11.5001 5.06348 11.9366 5.5 12.4751 5.5H13.0601C13.5985 5.5 14.0351 5.06348 14.0351 4.525V0.974998C14.0351 0.436521 13.5985 0 13.0601 0Z" fill="#FEC248"/>
<path d="M13.0601 0H12.4751C11.9366 0 11.5001 0.436521 11.5001 0.974998V3.99C11.5001 4.52848 11.9366 4.965 12.4751 4.965H13.0601C13.5985 4.965 14.0351 4.52848 14.0351 3.99V0.974998C14.0351 0.436521 13.5985 0 13.0601 0Z" fill="#D8D8D8"/>
<path d="M17.5248 0H16.9398C16.4014 0 15.9648 0.436521 15.9648 0.974998V4.525C15.9648 5.06348 16.4014 5.5 16.9398 5.5H17.5248C18.0633 5.5 18.4998 5.06348 18.4998 4.525V0.974998C18.4998 0.436521 18.0633 0 17.5248 0Z" fill="#FEC248"/>
<path d="M17.5248 0H16.9398C16.4014 0 15.9648 0.436521 15.9648 0.974998V3.99C15.9648 4.52848 16.4014 4.965 16.9398 4.965H17.5248C18.0633 4.965 18.4998 4.52848 18.4998 3.99V0.974998C18.4998 0.436521 18.0633 0 17.5248 0Z" fill="#D8D8D8"/>
<path d="M21.9902 0H21.4052C20.8668 0 20.4302 0.436521 20.4302 0.974998V4.525C20.4302 5.06348 20.8668 5.5 21.4052 5.5H21.9902C22.5287 5.5 22.9652 5.06348 22.9652 4.525V0.974998C22.9652 0.436521 22.5287 0 21.9902 0Z" fill="#FEC248"/>
<path d="M21.9902 0H21.4052C20.8668 0 20.4302 0.436521 20.4302 0.974998V3.99C20.4302 4.52848 20.8668 4.965 21.4052 4.965H21.9902C22.5287 4.965 22.9652 4.52848 22.9652 3.99V0.974998C22.9652 0.436521 22.5287 0 21.9902 0Z" fill="#D8D8D8"/>
<g clip-path="url(#clip0_40011565_97926)">
<path d="M24.4322 19.27L25.1893 20.8134C25.3199 21.0853 25.5413 21.5376 25.8347 21.5738L28.4844 21.9539C29.2187 22.0641 29.5102 23.5733 28.9764 24.1056L27.2844 25.801C27.1892 25.892 27.1203 26.0072 27.085 26.1344C27.0497 26.2616 27.0493 26.3959 27.0838 26.5233L27.5134 28.8194C27.6383 29.5797 26.6333 30.2583 25.9747 29.9028L24.048 28.8707C23.9193 28.8015 23.7757 28.7653 23.6297 28.7653C23.4838 28.7653 23.3401 28.8015 23.2114 28.8707L21.3358 29.8743C20.6791 30.2298 19.6324 29.6614 19.7668 28.9068L20.1794 26.4359C20.2286 26.1375 20.1794 26.0386 19.9618 25.8257L18.2697 24.1189C17.736 23.5847 18.0407 22.0736 18.777 21.9653L21.2374 21.608C21.5308 21.5642 21.7787 21.492 21.9093 21.2278L22.8083 19.2605C22.8822 19.1068 22.998 18.9772 23.1422 18.8868C23.2864 18.7965 23.4532 18.749 23.6232 18.75C23.7932 18.751 23.9595 18.8004 24.1027 18.8924C24.2459 18.9845 24.3601 19.1154 24.4322 19.27Z" fill="#F68520"/>
<path d="M24.4051 19.2243L25.4157 21.2306C25.4785 21.354 25.57 21.4606 25.6826 21.5412C25.7952 21.6218 25.9255 21.6741 26.0626 21.6937L28.3126 22.0162C28.4713 22.0358 28.6212 22.1 28.7449 22.2013C28.8685 22.3026 28.961 22.437 29.0114 22.5887C29.0618 22.7404 29.0682 22.9033 29.0299 23.0585C28.9915 23.2137 28.9098 23.3549 28.7945 23.4656L27.1595 25.0275C27.0595 25.1224 26.9843 25.2405 26.9405 25.3712C26.8967 25.5019 26.8856 25.6414 26.9082 25.7775L27.2945 27.9825C27.317 28.1387 27.2962 28.2981 27.2343 28.4433C27.1725 28.5885 27.072 28.714 26.9438 28.806C26.8156 28.8981 26.6646 28.9532 26.5072 28.9653C26.3499 28.9775 26.1922 28.9462 26.0514 28.875L24.0301 27.8381C23.9053 27.7742 23.7672 27.7409 23.627 27.7409C23.4868 27.7409 23.3486 27.7742 23.2239 27.8381L21.2026 28.875C21.0612 28.9504 20.9015 28.985 20.7415 28.9747C20.5815 28.9645 20.4275 28.9099 20.2969 28.817C20.1662 28.7241 20.064 28.5966 20.0018 28.4489C19.9395 28.3011 19.9197 28.139 19.9445 27.9806L20.3307 25.7756C20.3537 25.6397 20.343 25.5003 20.2995 25.3695C20.2561 25.2387 20.1811 25.1206 20.0814 25.0256L18.4464 23.4656C18.331 23.355 18.2494 23.214 18.2109 23.0589C18.1724 22.9039 18.1787 22.7411 18.2289 22.5894C18.2791 22.4377 18.3713 22.3034 18.4947 22.202C18.6182 22.1005 18.7678 22.0361 18.9264 22.0162L21.1876 21.6937C21.3257 21.675 21.4572 21.6231 21.5708 21.5424C21.6844 21.4617 21.7769 21.3548 21.8401 21.2306L22.8507 19.2243C22.9246 19.082 23.0362 18.9627 23.1732 18.8794C23.3103 18.7961 23.4676 18.7521 23.6279 18.7521C23.7883 18.7521 23.9456 18.7961 24.0826 18.8794C24.2197 18.9627 24.3312 19.082 24.4051 19.2243Z" fill="#FFD731"/>
<path d="M28.7681 22.2094L20.3737 28.875C20.2182 28.7919 20.0929 28.6617 20.0158 28.5031C19.9386 28.3445 19.9136 28.1656 19.9443 27.9919L20.1825 26.625L26.3306 21.7313L28.3275 22.0163C28.4897 22.0374 28.6426 22.1044 28.7681 22.2094Z" fill="#FEE569"/>
</g>
<path d="M8.12982 13.27C9.06042 13.27 9.81483 12.5156 9.81483 11.585C9.81483 10.6544 9.06042 9.89996 8.12982 9.89996C7.19922 9.89996 6.44482 10.6544 6.44482 11.585C6.44482 12.5156 7.19922 13.27 8.12982 13.27Z" fill="#EFD45D"/>
<path d="M12.7098 13.27C13.6404 13.27 14.3948 12.5156 14.3948 11.585C14.3948 10.6544 13.6404 9.89996 12.7098 9.89996C11.7792 9.89996 11.0248 10.6544 11.0248 11.585C11.0248 12.5156 11.7792 13.27 12.7098 13.27Z" fill="#EFD45D"/>
<path d="M17.29 13.27C18.2206 13.27 18.975 12.5156 18.975 11.585C18.975 10.6544 18.2206 9.89996 17.29 9.89996C16.3594 9.89996 15.605 10.6544 15.605 11.585C15.605 12.5156 16.3594 13.27 17.29 13.27Z" fill="#EFD45D"/>
<path d="M21.8701 13.27C22.8007 13.27 23.5551 12.5156 23.5551 11.585C23.5551 10.6544 22.8007 9.89996 21.8701 9.89996C20.9395 9.89996 20.1851 10.6544 20.1851 11.585C20.1851 12.5156 20.9395 13.27 21.8701 13.27Z" fill="#EFD45D"/>
<path d="M8.12982 17.885C9.06042 17.885 9.81483 17.1306 9.81483 16.2C9.81483 15.2694 9.06042 14.515 8.12982 14.515C7.19922 14.515 6.44482 15.2694 6.44482 16.2C6.44482 17.1306 7.19922 17.885 8.12982 17.885Z" fill="#EFD45D"/>
<path d="M12.7098 17.885C13.6404 17.885 14.3948 17.1306 14.3948 16.2C14.3948 15.2694 13.6404 14.515 12.7098 14.515C11.7792 14.515 11.0248 15.2694 11.0248 16.2C11.0248 17.1306 11.7792 17.885 12.7098 17.885Z" fill="#EFD45D"/>
<path d="M8.12982 22.5C9.06042 22.5 9.81483 21.7456 9.81483 20.815C9.81483 19.8844 9.06042 19.13 8.12982 19.13C7.19922 19.13 6.44482 19.8844 6.44482 20.815C6.44482 21.7456 7.19922 22.5 8.12982 22.5Z" fill="#EFD45D"/>
<path d="M12.7098 22.5C13.6404 22.5 14.3948 21.7456 14.3948 20.815C14.3948 19.8844 13.6404 19.13 12.7098 19.13C11.7792 19.13 11.0248 19.8844 11.0248 20.815C11.0248 21.7456 11.7792 22.5 12.7098 22.5Z" fill="#EFD45D"/>
<path d="M17.29 17.885C18.2206 17.885 18.975 17.1306 18.975 16.2C18.975 15.2694 18.2206 14.515 17.29 14.515C16.3594 14.515 15.605 15.2694 15.605 16.2C15.605 17.1306 16.3594 17.885 17.29 17.885Z" fill="#EFD45D"/>
<path d="M21.8701 17.885C22.8007 17.885 23.5551 17.1306 23.5551 16.2C23.5551 15.2694 22.8007 14.515 21.8701 14.515C20.9395 14.515 20.1851 15.2694 20.1851 16.2C20.1851 17.1306 20.9395 17.885 21.8701 17.885Z" fill="#EFD45D"/>
<defs>
<clipPath id="clip0_40011565_97926">
<rect width="11.25" height="11.25" fill="white" transform="translate(18 18.75)"/>
</clipPath>
</defs>
</svg>
