<?xml version="1.0" encoding="UTF-8"?>
<svg id="Layer_2" data-name="Layer 2" xmlns="http://www.w3.org/2000/svg" xmlns:xlink="http://www.w3.org/1999/xlink" viewBox="0 0 39.92 30.71">
  <defs>
    <style>
      .cls-1 {
        fill: #c14027;
      }

      .cls-2 {
        fill: #fff5cb;
      }

      .cls-3 {
        fill: url(#radial-gradient);
      }

      .cls-4 {
        fill: #fff;
        stroke: #c14027;
        stroke-miterlimit: 10;
        stroke-width: .55px;
      }

      .cls-5 {
        fill: #f26822;
      }

      .cls-6 {
        fill: #fcd929;
      }

      .cls-7 {
        fill: #feea99;
      }
    </style>
    <radialGradient id="radial-gradient" cx="24.35" cy="14.45" fx="24.35" fy="14.45" r="25.83" gradientUnits="userSpaceOnUse">
      <stop offset=".09" stop-color="#fbad22"/>
      <stop offset=".28" stop-color="#faa921"/>
      <stop offset=".47" stop-color="#f89d21"/>
      <stop offset=".66" stop-color="#f68920"/>
      <stop offset=".77" stop-color="#f47920"/>
    </radialGradient>
  </defs>
  <g id="Layer_1-2" data-name="Layer 1">
    <g>
      <path class="cls-3" d="M35.36,4.5c-2.42-2.41-5.44-3.85-8.59-4.3-.01,0-.02,0-.03,0-.52-.07-1.04-.12-1.56-.14-.02,0-.04,0-.05,0-.54-.02-1.09-.01-1.62.03-1.22.08-2.43.33-3.6.72-.21.06-.41.13-.6.2,0,0,0,0,0,0,0,0,0,0,0,0-.22.08-.44.16-.65.25-.03,0-.06.02-.09.04-1.99.82-3.44,1.85-4.72,2.58l-7.72,4.35c-.63.36-.65,1.26-.04,1.64l2.28,1.43L.81,14.23c-.77.3-.82,1.38-.07,1.75l8.55,4.21-1.87.87c-.69.32-.75,1.27-.1,1.68l7.04,4.4c1.04.65,2.13,1.22,3.25,1.71.02.01.04.02.06.03,1.75.89,3.64,1.43,5.55,1.6,2.15.19,4.35-.07,6.41-.79.61-.21,1.21-.46,1.79-.76,0,0,.01,0,.02,0,.97-.49,1.91-1.09,2.78-1.8.16-.13.33-.27.48-.42.1-.08.2-.17.3-.27.13-.11.25-.23.37-.35,5.95-5.95,5.95-15.6,0-21.55Z"/>
      <path class="cls-5" d="M35.36,4.5C31.26.34,24.69-1.01,19.3,1.08c-1.6.57-3.33,1.57-4.85,2.54-2.38,1.37-5.79,3.32-8.21,4.69-.73.39-.51,1.3.2,1.58.2.12,2.17,1.35,2.29,1.42-1.67.67-5.59,2.2-7.23,2.86,0,0-.58.23-.58.23-.5.16-.67.82-.33,1.19.41.35,1.58.8,2.12,1.1,1.65.82,5.44,2.63,7.13,3.47-.9.69-3.39,1.05-2.56,2.2.76.6,2.28,1.45,3.12,2.02,1.91,1.13,4.5,2.99,6.49,3.91,15.62,8.48,30.64-10.73,18.47-23.78h0ZM35.36,4.5c12.41,13.19-2.79,32.58-18.65,24.14-2.02-.91-4.64-2.74-6.56-3.87-.53-.33-1.91-1.18-2.42-1.5-.6-.31-1.36-.88-1.06-1.72.09-.39.49-.7.79-.8l1.73-.8v.46c-1.45-.72-5.26-2.61-6.66-3.31,0,0-1.11-.55-1.11-.55-.34-.21-.85-.33-1.13-.67-.53-.59-.24-1.62.51-1.85,0,0,.58-.22.58-.22,1.44-.55,5.44-2.09,6.94-2.67,0,0-.03.3-.03.3-.35-.25-2.21-1.34-2.51-1.64-.49-.51-.31-1.45.33-1.74,2.44-1.35,5.86-3.26,8.25-4.61,1.58-.97,3.24-1.96,4.95-2.52,5.31-2.03,12-.65,16.07,3.58h0Z"/>
    </g>
    <g>
      <circle class="cls-6" cx="24.64" cy="15.27" r="13.1"/>
      <path class="cls-7" d="M33.91,24.54c-8.22,8.29-22.47,2.41-22.51-9.26-.2-7.12,6.12-13.45,13.25-13.25,11.67.05,17.56,14.29,9.26,22.51h0ZM33.91,24.54c8.13-8.19,2.28-22.27-9.26-22.22-6.93-.09-13.05,6.02-12.95,12.95-.05,11.55,14.03,17.39,22.22,9.26h0Z"/>
    </g>
    <g>
      <path class="cls-1" d="M31.06,11.78l-7.23-3.19c-2.06-1.25-4.63.32-4.63,2.82v8.52c0,2.5,2.57,4.07,4.63,2.82l7.05-4.26c2.07-1.25,2.25-5.46.18-6.71Z"/>
      <path class="cls-4" d="M30.69,11.72l-6.79-3.9c-1.98-1.14-4.46.29-4.46,2.58v7.79c0,2.29,2.47,3.72,4.46,2.58l6.79-3.9c1.99-1.14,1.99-4.02,0-5.16Z"/>
    </g>
    <path class="cls-2" d="M31.24,7.1c.15.13.29.28.43.42.16.17.31.34.46.51.08.1.17.2.25.3.05.06.09.12.14.18.13.16-.13-.18.03.04.44.59.84,1.2,1.19,1.85.1.19.19.37.29.57.04.08.08.17.12.25.03.06.05.11.08.17-.04-.1-.04-.09,0,.02.17.43.32.86.44,1.31.14.52.74.89,1.27.72s.87-.71.72-1.27c-.47-1.68-1.27-3.27-2.32-4.66-.49-.65-1.01-1.31-1.63-1.86-.4-.36-1.06-.43-1.46,0-.36.39-.43,1.07,0,1.46h0Z"/>
  </g>
</svg>